<svg xmlns="http://www.w3.org/2000/svg" viewBox="0 0 800 400">
  <defs>
    <linearGradient id="bg" x1="0%" y1="0%" x2="100%" y2="100%">
      <stop offset="0%" stop-color="#111827"/>
      <stop offset="100%" stop-color="#080f14"/>
    </linearGradient>
    <radialGradient id="gl" cx="65%" cy="50%" r="55%">
      <stop offset="0%" stop-color="#06b6d4" stop-opacity="0.22"/>
      <stop offset="100%" stop-color="#06b6d4" stop-opacity="0"/>
    </radialGradient>
  </defs>
  <rect width="800" height="400" fill="url(#bg)"/>
  <rect width="800" height="400" fill="url(#gl)"/>
  <circle cx="590" cy="200" r="160" fill="none" stroke="#06b6d4" stroke-width="1.5" opacity="0.12"/>
  <!-- AI neural network nodes -->
  <!-- Layer 1 -->
  <circle cx="470" cy="140" r="12" fill="#06b6d4" opacity="0.5"/>
  <circle cx="470" cy="200" r="12" fill="#06b6d4" opacity="0.5"/>
  <circle cx="470" cy="260" r="12" fill="#06b6d4" opacity="0.5"/>
  <!-- Layer 2 -->
  <circle cx="570" cy="120" r="14" fill="#22d3ee" opacity="0.65"/>
  <circle cx="570" cy="180" r="14" fill="#22d3ee" opacity="0.65"/>
  <circle cx="570" cy="240" r="14" fill="#22d3ee" opacity="0.65"/>
  <circle cx="570" cy="300" r="14" fill="#22d3ee" opacity="0.65"/>
  <!-- Layer 3 -->
  <circle cx="680" cy="155" r="16" fill="#06b6d4" opacity="0.8"/>
  <circle cx="680" cy="245" r="16" fill="#06b6d4" opacity="0.8"/>
  <!-- Connections L1→L2 -->
  <line x1="482" y1="140" x2="556" y2="120" stroke="#22d3ee" stroke-width="1" opacity="0.2"/>
  <line x1="482" y1="140" x2="556" y2="180" stroke="#22d3ee" stroke-width="1" opacity="0.2"/>
  <line x1="482" y1="140" x2="556" y2="240" stroke="#22d3ee" stroke-width="1" opacity="0.15"/>
  <line x1="482" y1="200" x2="556" y2="120" stroke="#22d3ee" stroke-width="1" opacity="0.15"/>
  <line x1="482" y1="200" x2="556" y2="180" stroke="#22d3ee" stroke-width="1.5" opacity="0.25"/>
  <line x1="482" y1="200" x2="556" y2="240" stroke="#22d3ee" stroke-width="1.5" opacity="0.25"/>
  <line x1="482" y1="200" x2="556" y2="300" stroke="#22d3ee" stroke-width="1" opacity="0.15"/>
  <line x1="482" y1="260" x2="556" y2="240" stroke="#22d3ee" stroke-width="1" opacity="0.2"/>
  <line x1="482" y1="260" x2="556" y2="300" stroke="#22d3ee" stroke-width="1" opacity="0.2"/>
  <!-- Connections L2→L3 -->
  <line x1="584" y1="120" x2="664" y2="155" stroke="#06b6d4" stroke-width="1.5" opacity="0.3"/>
  <line x1="584" y1="180" x2="664" y2="155" stroke="#06b6d4" stroke-width="1.5" opacity="0.35"/>
  <line x1="584" y1="180" x2="664" y2="245" stroke="#06b6d4" stroke-width="1" opacity="0.2"/>
  <line x1="584" y1="240" x2="664" y2="155" stroke="#06b6d4" stroke-width="1" opacity="0.2"/>
  <line x1="584" y1="240" x2="664" y2="245" stroke="#06b6d4" stroke-width="1.5" opacity="0.35"/>
  <line x1="584" y1="300" x2="664" y2="245" stroke="#06b6d4" stroke-width="1.5" opacity="0.3"/>
  <!-- Label chip -->
  <rect x="36" y="338" width="136" height="30" rx="15" fill="#06b6d4" fill-opacity="0.12"/>
  <text x="104" y="358" font-family="Arial,sans-serif" font-size="13" font-weight="700"
        text-anchor="middle" fill="#22d3ee" letter-spacing="1.5">ТЕХНОЛОГИИ</text>
</svg>
